<?xml version="1.0" standalone="no"?>
<!DOCTYPE svg PUBLIC "-//W3C//DTD SVG 20010904//EN"
 "http://www.w3.org/TR/2001/REC-SVG-20010904/DTD/svg10.dtd">
<svg version="1.0" xmlns="http://www.w3.org/2000/svg"
 width="512.000000pt" height="512.000000pt" viewBox="0 0 512.000000 512.000000"
 preserveAspectRatio="xMidYMid meet">
<metadata>
Created by potrace 1.14, written by Peter Selinger 2001-2017
</metadata>
<g transform="translate(0.000000,512.000000) scale(0.100000,-0.100000)"
fill="#000000" stroke="none">
<path d="M2533 4960 c-52 -21 -363 -459 -363 -511 0 -9 8 -27 19 -40 18 -22
18 -24 -27 -111 -37 -75 -48 -88 -69 -88 -13 0 -33 -5 -44 -10 -19 -11 -59
-79 -59 -102 0 -7 -6 -25 -14 -40 -8 -14 -26 -77 -41 -140 -23 -92 -28 -136
-28 -238 -1 -147 16 -225 74 -347 87 -181 261 -329 433 -364 28 -6 55 -15 61
-20 5 -5 10 -59 10 -118 l0 -109 -35 -17 c-19 -9 -73 -45 -120 -79 -47 -34
-114 -79 -149 -101 -72 -43 -243 -129 -281 -140 -14 -4 -29 -11 -35 -15 -29
-23 -417 -138 -525 -156 -14 -2 -45 -9 -70 -14 -25 -5 -61 -12 -80 -14 -19 -3
-44 -7 -55 -10 -11 -2 -47 -7 -80 -10 -77 -9 -131 -15 -175 -21 -59 -8 -294
-16 -490 -18 -172 -2 -188 -4 -232 -25 -61 -30 -122 -100 -144 -164 -42 -127
23 -277 145 -334 46 -22 43 -17 48 -66 2 -24 11 -77 20 -118 9 -41 18 -79 19
-85 6 -27 55 -147 82 -201 94 -185 344 -472 443 -507 9 -3 29 1 46 10 30 14
32 13 117 -42 68 -44 86 -61 81 -75 -13 -41 16 -70 121 -121 253 -123 590
-211 894 -236 202 -16 1065 -8 1165 11 17 3 101 15 145 21 111 14 418 101 515
145 429 195 660 371 859 657 20 29 36 55 36 58 0 3 11 22 24 43 57 90 128 313
139 435 5 55 0 49 55 76 89 45 142 127 148 228 5 92 -22 160 -88 217 -77 68
-115 75 -373 76 -238 1 -311 4 -450 20 -49 5 -112 13 -140 16 -27 3 -72 9
-100 14 -27 5 -61 11 -75 14 -82 14 -117 21 -225 48 -66 16 -150 38 -187 49
-70 22 -97 17 -124 -19 -10 -13 -21 -12 -85 12 -97 35 -102 39 -105 76 -3 39
-17 56 -63 77 -59 28 -223 123 -269 157 -23 17 -59 44 -80 60 -20 16 -55 37
-77 47 l-40 18 1 113 c2 140 -1 128 28 128 40 0 166 50 233 92 135 85 257 263
298 432 26 107 26 272 1 391 -59 281 -229 612 -492 956 -101 131 -123 148
-171 129z"/>
</g>
</svg>
